<svg xmlns="http://www.w3.org/2000/svg" viewBox="0 0 800 450" role="img" aria-label="Jobly ATS resume platform cover">
  <defs>
    <linearGradient id="bg" x1="0" y1="0" x2="1" y2="1">
      <stop offset="0" stop-color="#0a0f1e"/><stop offset="1" stop-color="#101038"/>
    </linearGradient>
    <linearGradient id="acc" x1="0" y1="0" x2="1" y2="1">
      <stop offset="0" stop-color="#00d4ff"/><stop offset="1" stop-color="#7c3aed"/>
    </linearGradient>
    <filter id="glow" x="-40%" y="-40%" width="180%" height="180%">
      <feGaussianBlur stdDeviation="6" result="b"/><feMerge><feMergeNode in="b"/><feMergeNode in="SourceGraphic"/></feMerge>
    </filter>
  </defs>
  <rect width="800" height="450" fill="url(#bg)"/>
  <g stroke="#00d4ff" stroke-opacity="0.05">
    <path d="M0 90H800M0 180H800M0 270H800M0 360H800"/>
    <path d="M100 0V450M200 0V450M300 0V450M400 0V450M500 0V450M600 0V450M700 0V450"/>
  </g>
  <!-- resume doc -->
  <g filter="url(#glow)">
    <path d="M250 92 H420 L460 132 V358 H250 Z" fill="none" stroke="url(#acc)" stroke-width="3"/>
    <path d="M420 92 V132 H460" fill="none" stroke="url(#acc)" stroke-width="3"/>
  </g>
  <circle cx="292" cy="152" r="18" fill="#00d4ff" fill-opacity="0.35"/>
  <rect x="322" y="140" width="100" height="8" rx="4" fill="#94a3b8"/>
  <rect x="322" y="156" width="66" height="7" rx="3" fill="#64748b"/>
  <g fill="#94a3b8" fill-opacity="0.55">
    <rect x="274" y="196" width="160" height="7" rx="3"/>
    <rect x="274" y="214" width="140" height="7" rx="3"/>
    <rect x="274" y="232" width="152" height="7" rx="3"/>
    <rect x="274" y="262" width="96" height="7" rx="3" fill="#00d4ff" fill-opacity="0.7"/>
    <rect x="274" y="280" width="150" height="7" rx="3"/>
    <rect x="274" y="298" width="128" height="7" rx="3"/>
  </g>
  <!-- ATS score gauge -->
  <g transform="translate(568 190)">
    <circle r="56" fill="none" stroke="#0f172a" stroke-width="11"/>
    <circle r="56" fill="none" stroke="url(#acc)" stroke-width="11" stroke-linecap="round"
      stroke-dasharray="323 352" transform="rotate(-90)" filter="url(#glow)"/>
    <text y="-2" text-anchor="middle" font-family="Consolas,Menlo,monospace" font-size="27" fill="#f1f5f9">92</text>
    <text y="22" text-anchor="middle" font-family="Consolas,Menlo,monospace" font-size="13" fill="#94a3b8">ATS SCORE</text>
  </g>
  <!-- match tags -->
  <g font-family="Consolas,Menlo,monospace" font-size="13">
    <rect x="512" y="286" width="112" height="26" rx="13" fill="#34d399" fill-opacity="0.14" stroke="#34d399" stroke-opacity="0.6"/>
    <text x="568" y="303" text-anchor="middle" fill="#34d399">MATCH 94%</text>
    <rect x="512" y="322" width="112" height="26" rx="13" fill="#00d4ff" fill-opacity="0.12" stroke="#00d4ff" stroke-opacity="0.5"/>
    <text x="568" y="339" text-anchor="middle" fill="#00d4ff">TRACKED</text>
  </g>
  <g stroke="#00d4ff" stroke-width="2" stroke-opacity="0.55" fill="none">
    <path d="M22 52 V22 H52"/><path d="M748 22 H778 V52"/>
    <path d="M778 398 V428 H748"/><path d="M52 428 H22 V398"/>
  </g>
  <text x="34" y="416" font-family="Consolas,Menlo,monospace" font-size="17" fill="#00d4ff" fill-opacity="0.8">APP://JOBLY · ATS ENGINE · JOB MATCHING</text>
</svg>
