<svg xmlns="http://www.w3.org/2000/svg" viewBox="0 0 800 450" role="img" aria-label="Craft Connect cloud platform cover">
  <defs>
    <linearGradient id="bg" x1="0" y1="0" x2="1" y2="1">
      <stop offset="0" stop-color="#0A0A0A"/><stop offset="1" stop-color="#161616"/>
    </linearGradient>
    <linearGradient id="acc" x1="0" y1="0" x2="1" y2="1">
      <stop offset="0" stop-color="#F44A22"/><stop offset="1" stop-color="#FF8A4C"/>
    </linearGradient>
    <filter id="glow" x="-40%" y="-40%" width="180%" height="180%">
      <feGaussianBlur stdDeviation="6" result="b"/><feMerge><feMergeNode in="b"/><feMergeNode in="SourceGraphic"/></feMerge>
    </filter>
  </defs>
  <rect width="800" height="450" fill="url(#bg)"/>
  <g stroke="#F44A22" stroke-opacity="0.05">
    <path d="M0 90H800M0 180H800M0 270H800M0 360H800"/>
    <path d="M100 0V450M200 0V450M300 0V450M400 0V450M500 0V450M600 0V450M700 0V450"/>
  </g>
  <!-- cloud -->
  <path d="M310 190 a52 52 0 0 1 100 -18 a42 42 0 0 1 78 22 a36 36 0 0 1 -8 71 H330 a44 44 0 0 1 -20 -75 Z"
    fill="none" stroke="url(#acc)" stroke-width="3.5" filter="url(#glow)"/>
  <!-- sync arrows inside cloud -->
  <g stroke="#F44A22" stroke-width="3" fill="none" filter="url(#glow)">
    <path d="M368 208 a34 34 0 0 1 58 -12"/><path d="M424 184 l4 14 l-15 2 Z" fill="#F44A22"/>
    <path d="M432 224 a34 34 0 0 1 -58 12"/><path d="M376 248 l-4 -14 l15 -2 Z" fill="#F44A22"/>
  </g>
  <!-- edge nodes -->
  <g stroke="#F44A22" stroke-opacity="0.45" stroke-dasharray="5 7">
    <line x1="400" y1="268" x2="228" y2="352"/>
    <line x1="400" y1="268" x2="400" y2="366"/>
    <line x1="400" y1="268" x2="572" y2="352"/>
  </g>
  <g fill="none" stroke="url(#acc)" stroke-width="2.5">
    <rect x="196" y="340" width="64" height="42" rx="8"/>
    <rect x="368" y="354" width="64" height="42" rx="8"/>
    <rect x="540" y="340" width="64" height="42" rx="8"/>
  </g>
  <circle cx="228" cy="361" r="5" fill="#34d399"/>
  <circle cx="400" cy="375" r="5" fill="#fbbf24"/>
  <circle cx="572" cy="361" r="5" fill="#34d399"/>
  <text x="558" y="120" font-family="Consolas,Menlo,monospace" font-size="15" fill="#8C8C8C">ap-south-1</text>
  <circle cx="545" cy="115" r="4" fill="#34d399"/>
  <g stroke="#F44A22" stroke-width="2" stroke-opacity="0.55" fill="none">
    <path d="M22 52 V22 H52"/><path d="M748 22 H778 V52"/>
    <path d="M778 398 V428 H748"/><path d="M52 428 H22 V398"/>
  </g>
  <text x="34" y="416" font-family="Consolas,Menlo,monospace" font-size="17" fill="#F44A22" fill-opacity="0.8">CLOUD://CRAFT-CONNECT · AWS · OFFLINE-SYNC</text>
</svg>
