<svg xmlns="http://www.w3.org/2000/svg" viewBox="0 0 1000 625" role="img" aria-label="Edunox AI study platform cover">
  <defs>
    <linearGradient id="bg" x1="0" y1="0" x2="1" y2="1">
      <stop offset="0" stop-color="#0A0A0A"/><stop offset="1" stop-color="#161616"/>
    </linearGradient>
    <linearGradient id="acc" x1="0" y1="0" x2="1" y2="1">
      <stop offset="0" stop-color="#F44A22"/><stop offset="1" stop-color="#FF8A4C"/>
    </linearGradient>
    <filter id="glow" x="-40%" y="-40%" width="180%" height="180%">
      <feGaussianBlur stdDeviation="6" result="b"/><feMerge><feMergeNode in="b"/><feMergeNode in="SourceGraphic"/></feMerge>
    </filter>
  </defs>
  <rect width="1000" height="625" fill="url(#bg)"/>
  <g stroke="#F44A22" stroke-opacity="0.05">
    <path d="M0 125H1000M0 250H1000M0 375H1000M0 500H1000"/>
    <path d="M125 0V625M250 0V625M375 0V625M500 0V625M625 0V625M750 0V625M875 0V625"/>
  </g>

  <!-- open book -->
  <g fill="none" stroke="url(#acc)" stroke-width="4" filter="url(#glow)">
    <path d="M500 250 C462 222 410 214 362 220 V420 C410 414 462 422 500 450 Z"/>
    <path d="M500 250 C538 222 590 214 638 220 V420 C590 414 538 422 500 450 Z"/>
    <path d="M500 250 V450"/>
  </g>
  <g stroke="#F44A22" stroke-opacity="0.35" stroke-width="2.5">
    <path d="M392 262H468M392 300H468M392 338H452"/>
    <path d="M532 262H608M532 300H608M532 338H592"/>
  </g>

  <!-- AI spark above the book -->
  <path d="M500 130 l12 34 l34 12 l-34 12 l-12 34 l-12 -34 l-34 -12 l34 -12 Z"
    fill="url(#acc)" filter="url(#glow)"/>
  <g stroke="#F44A22" stroke-opacity="0.45" stroke-dasharray="5 7">
    <line x1="500" y1="222" x2="500" y2="196"/>
    <line x1="430" y1="200" x2="470" y2="176"/>
    <line x1="570" y1="200" x2="530" y2="176"/>
  </g>

  <!-- engagement curve -->
  <g fill="none">
    <path d="M700 470 L740 440 L780 452 L820 392 L860 356 L900 288"
      stroke="url(#acc)" stroke-width="4" filter="url(#glow)"/>
    <g stroke="#F44A22" stroke-opacity="0.3" stroke-width="2">
      <path d="M700 500H920"/><path d="M700 500V270"/>
    </g>
  </g>
  <circle cx="900" cy="288" r="7" fill="#34d399"/>
  <text x="700" y="252" font-family="Consolas,Menlo,monospace" font-size="26" fill="#F44A22">15,000+</text>
  <text x="700" y="278" font-family="Consolas,Menlo,monospace" font-size="15" fill="#8C8C8C">LINKEDIN IMPRESSIONS</text>

  <!-- stack strip -->
  <text x="84" y="252" font-family="Consolas,Menlo,monospace" font-size="15" fill="#8C8C8C">REACT</text>
  <text x="84" y="282" font-family="Consolas,Menlo,monospace" font-size="15" fill="#8C8C8C">TYPESCRIPT</text>
  <text x="84" y="312" font-family="Consolas,Menlo,monospace" font-size="15" fill="#8C8C8C">VITE</text>
  <text x="84" y="342" font-family="Consolas,Menlo,monospace" font-size="15" fill="#8C8C8C">SUPABASE</text>
  <text x="84" y="372" font-family="Consolas,Menlo,monospace" font-size="15" fill="#8C8C8C">GROQ</text>
  <circle cx="70" cy="247" r="4" fill="#34d399"/><circle cx="70" cy="277" r="4" fill="#34d399"/>
  <circle cx="70" cy="307" r="4" fill="#34d399"/><circle cx="70" cy="337" r="4" fill="#34d399"/>
  <circle cx="70" cy="367" r="4" fill="#fbbf24"/>

  <g stroke="#F44A22" stroke-width="2" stroke-opacity="0.55" fill="none">
    <path d="M28 72 V28 H72"/><path d="M928 28 H972 V72"/>
    <path d="M972 553 V597 H928"/><path d="M72 597 H28 V553"/>
  </g>
  <text x="44" y="583" font-family="Consolas,Menlo,monospace" font-size="18" fill="#F44A22" fill-opacity="0.8">PRODUCT://EDUNOX · AI STUDY PLATFORM · CI/CD</text>
</svg>
